<?xml version="1.0" standalone="yes"?>
<svg xmlns="http://www.w3.org/2000/svg" viewBox="614.791 130.559 230.223 119.874" width="230.223" height="119.874">
    <path style="fill:none; stroke:none;" d="M 620.43 155.338 L 620.359 166.727 L 621.222 166.727 C 625.051 158.77 630.161 162.404 636.821 161.851 C 653.134 160.496 665.352 170.747 663.321 188.632 C 661.514 204.548 650.549 211.329 636.515 211.169 C 632.485 211.122 628.985 213.515 625.474 210.255 C 621.504 206.575 621.126 199.001 621.054 193.888 L 620.188 193.888 L 619.986 226.306 L 687.457 226.306 L 687.464 225.43 C 679.072 218.381 680.287 191.677 682.876 181.623 C 684.746 174.348 692.299 171.142 697.28 177.243 C 700.895 175.935 704.551 173.433 708.545 174.115 C 720.155 176.102 726.28 193.824 720.462 203.527 C 715.228 212.255 707.682 213.268 698.797 211.41 L 696.107 226.306 L 839.7 226.306 L 839.818 207.03 L 838.955 207.03 C 835.125 212.094 826.573 214.805 822.91 207.858 C 820.797 203.858 821.708 198.28 821.735 193.888 C 813.544 196.636 821.775 214.753 806.916 212.086 C 801.404 211.095 798.651 206.06 797.852 200.899 C 796.207 190.228 796.127 163.732 804.67 156.216 L 787.376 155.338 L 750.181 155.338 L 620.43 155.338 Z" transform="matrix(0.973659, -0.228008, 0.228008, 0.973659, -24.282783, 171.449919)"></path>
    <path style="fill:#00688F; stroke:none;" d="M 817.796 173.692 C 817.768 178.208 816.678 184.4 818.966 188.469 C 822.021 193.911 832.012 192.882 834.854 187.658 C 841.879 174.749 835.151 141.213 815.321 154.416 C 815.348 150.02 816.943 141.909 814.535 138.114 C 811.754 133.74 801.086 133.805 798.202 137.97 C 795.796 141.439 795.817 146.864 795.316 150.913 C 793.951 161.872 787.495 198.284 808.941 191.709 C 817.347 189.133 811.162 177.382 817.796 173.692 Z" transform="matrix(0.973659, -0.228008, 0.228008, 0.973659, -15.838157, 190.240279)"></path>
    <path style="fill:none; stroke:none;" d="M 807.099 133.74 L 807.094 134.616 C 813.349 138.184 811.345 146.648 811.303 153.015 C 819.092 149.063 825.943 149.992 831.171 157.396 L 832.036 157.396 L 832.185 133.74 L 807.099 133.74 Z" transform="matrix(0.973659, -0.228008, 0.228008, 0.973659, -11.600755, 190.718763)"></path>
    <path style="fill:#00688F; stroke:none;" d="M 665.211 172.014 C 656.422 176.573 660.895 189.513 670.145 184.098 C 676.869 180.164 673.665 167.625 665.211 172.014 Z" transform="matrix(0.973659, -0.228008, 0.228008, 0.973659, -23.069372, 156.803768)"></path>
    <path style="fill:#000A1F; stroke:none;" d="M 799.783 166.875 L 800.646 166.875 L 804.145 160.74 L 801.391 186.148 L 798.803 185.274 L 798.845 178.264 L 797.982 178.264 C 797.939 184.982 796.111 194.967 799.69 200.947 C 802.085 204.952 809.487 206.287 812.144 201.79 C 814.044 198.573 813.452 194.11 813.473 190.531 L 808.269 193.159 C 813.764 185.513 820.241 185.488 828.19 188.778 L 828.184 189.653 L 822.137 188.778 C 821.374 192.793 820.36 198.754 823.058 202.301 C 827.655 208.345 834.839 202.01 835.667 196.663 C 836.61 190.546 837.613 179.379 834.14 174.046 C 828.087 164.756 816.726 170.959 813.546 179.14 C 812.086 172.103 817.399 163.198 814.762 156.458 C 813.053 152.087 805.197 151.535 802.325 154.99 C 799.796 158.028 799.837 163.144 799.783 166.875 M 669.261 155.312 C 664.439 156.918 664.314 165.421 669.964 163.049 C 673.739 161.46 674.631 153.52 669.261 155.312 Z" transform="matrix(0.973659, -0.228008, 0.228008, 0.973659, -20.971552, 175.970742)"></path>
    <path style="fill:#00688F; stroke:none;" d="M 627.702 181.363 C 618.954 183.897 621.542 197.544 621.499 204.515 C 621.457 211.352 620.627 227.743 627.481 231.65 C 630.943 233.627 634.973 231.618 638.629 231.803 C 641.962 231.969 644.806 232.833 648.144 231.862 C 664.914 226.988 669.584 201.701 659.842 188.826 C 653.546 180.508 637.19 178.615 627.702 181.363 Z" transform="matrix(0.973659, -0.228008, 0.228008, 0.973659, -30.113168, 152.050183)"></path>
    <path style="fill:#000A1F; stroke:none;" d="M 634.375 229.136 L 632.695 221.251 L 633.561 221.251 C 638.113 232.327 649.423 232.051 656.445 223.003 C 663.213 214.281 664.093 201.83 658.827 192.341 L 657.959 192.341 L 659.658 197.599 L 651.885 189.406 L 640.708 184.457 L 631.156 190.589 L 633.794 183.58 C 618.305 183.722 623.576 210.589 625.442 221.251 C 626.378 226.601 628.478 230.708 634.375 229.136 M 641.578 183.58 L 641.572 184.457 L 645.898 184.457 L 641.578 183.58 M 651.084 185.329 L 651.942 186.208 L 651.084 185.329 M 653.667 187.083 L 654.527 187.959 L 653.667 187.083 M 656.246 189.712 L 657.965 191.464 L 656.246 189.712 Z" transform="matrix(0.973659, -0.228008, 0.228008, 0.973659, -30.185996, 151.970817)"></path>
    <path style="fill:#00688F; stroke:none;" d="M 752.733 195.735 C 759.829 191.798 767.292 181.628 758.735 174.403 C 753.447 169.935 741.852 169.967 735.581 172.178 C 718.307 178.255 720.068 211.407 739.655 212.347 C 747.514 212.725 765.899 202.758 752.733 195.735 M 669.019 172.981 C 661.557 177.08 663.444 199.212 665.351 206.246 C 666.566 210.718 671.066 213.932 675.601 211.482 C 683.649 207.135 682.135 185.659 680.131 178.214 C 678.807 173.304 673.843 170.33 669.019 172.981 M 779.544 196.611 C 776.448 196.056 773.218 193.999 770.046 194.277 C 764.116 194.79 762.181 202.524 764.853 207.078 C 769.29 214.636 784.687 214.258 790.429 208.581 C 796.685 202.391 793.657 196.146 794.568 188.728 C 795.052 184.784 797.114 181.309 795.078 177.374 C 789.46 166.514 763.559 171.772 767.552 186.094 C 769.011 191.325 775.737 193.427 779.544 196.611 Z" transform="matrix(0.973659, -0.228008, 0.228008, 0.973659, -24.499208, 171.451173)"></path>
    <path style="fill:#000A1F; stroke:none;" d="M 728.396 184.336 L 725.796 185.209 L 725.791 186.088 L 728.385 186.088 C 728.713 194.372 734.537 195.567 737.803 201.856 C 740.676 201.854 743.675 202.039 746.457 201.153 C 758.993 197.154 749.045 183.342 740.447 193.973 L 739.582 193.973 L 737.918 183.458 L 734.491 178.2 C 739.195 182.472 746.915 186.368 753.483 183.897 C 760.282 181.342 760.027 171.173 754.449 167.763 C 748.048 163.848 736.739 164.266 731.108 169.515 C 727.472 172.905 723.322 180.94 728.396 184.336 M 800.313 165.059 L 800.274 171.194 L 801.139 171.194 L 800.313 165.059 Z" transform="matrix(0.973659, -0.228008, 0.228008, 0.973659, -21.721227, 178.908758)"></path>
    <path style="fill:#00688F; stroke:none;" d="M 701.565 217.607 C 704.702 218.501 707.774 219.484 711.072 218.937 C 730.146 215.769 730.385 182.581 711.315 180.134 C 707.189 179.603 703.602 181.604 700.048 183.438 C 693.89 171.993 685.508 186.299 684.666 193.076 C 683.513 202.347 682.878 220.485 687.165 228.902 C 689.37 233.224 697.83 234.212 700.47 229.741 C 702.403 226.471 701.543 221.264 701.565 217.607 Z" transform="matrix(0.973659, -0.228008, 0.228008, 0.973659, -28.385521, 166.090605)"></path>
    <path style="fill:#000A1F; stroke:none;" d="M 680.186 198.138 L 677.59 198.138 L 675.144 174.48 C 666.495 175.873 666.562 200.235 670.247 206.699 C 675.276 215.516 679.825 202.301 680.186 198.138 M 771.109 182.367 C 772.019 188.575 783.243 191.03 782.466 196.258 C 781.786 200.838 761.972 192.603 768.531 205.055 C 774.362 216.118 792.259 209.208 794.532 199.013 C 796.029 192.294 791.554 188.453 787.534 184.117 C 796.305 188.16 798.603 177.542 791.111 175.245 C 783.877 173.03 777.136 180.531 771.109 182.367 M 695.734 201.641 L 696.6 201.641 C 700.555 211.929 712.51 212.227 719.072 204.27 L 713.872 206.025 C 719.493 197.351 718.745 192.947 716.608 183.245 L 719.2 184.117 L 718.323 185.873 L 720.042 187.624 L 720.906 187.624 C 716.674 172.873 701.752 174.317 696.685 187.624 C 696.277 184.696 698.107 180.973 696.934 178.263 C 694.253 172.084 687.811 179.968 687.046 183.245 C 684.984 192.075 686.387 202.366 687.171 211.279 C 687.462 214.607 692.728 232.132 697.684 221.547 C 700.567 215.391 696.745 207.617 695.734 201.641 Z" transform="matrix(0.973659, -0.228008, 0.228008, 0.973659, -26.256556, 172.105562)"></path>
    <path style="fill:#00688F; stroke:none;" d="M 740.491 176.527 C 735.201 179.998 742.066 187.25 746.812 184.215 C 752.078 180.851 745.212 173.428 740.491 176.527 Z" transform="matrix(0.973659, -0.228008, 0.228008, 0.973659, -21.536195, 174.30785)"></path>
    <path style="fill:#000A1F; stroke:none;" d="M 767.114 169.911 L 767.975 170.787 L 767.114 169.911 Z" transform="matrix(0.973659, -0.228008, 0.228008, 0.973659, -18.623243, 179.493434)"></path>
    <path style="fill:#00688F; stroke:none;" d="M 639.599 201.493 C 634.18 204.402 636.716 213.358 642.714 210.025 C 647.391 207.422 645.492 198.329 639.599 201.493 Z" transform="matrix(0.973659, -0.228008, 0.228008, 0.973659, -30.039032, 151.569384)"></path>
    <path style="fill:#000A1F; stroke:none;" d="M 742.669 190.172 C 743.311 194.063 746.439 195.255 747.854 191.045 L 742.669 190.172 M 637.965 196.304 L 642.318 191.923 C 638.815 191.401 637.474 192.754 637.965 196.304 Z" transform="matrix(0.973659, -0.228008, 0.228008, 0.973659, -25.80935, 163.067812)"></path>
    <path style="fill:#00688F; stroke:none;" d="M 704.717 195.125 C 698.449 197.431 699.836 207.448 707.122 204.443 C 712.407 202.263 711.018 192.809 704.717 195.125 Z" transform="matrix(0.973659, -0.228008, 0.228008, 0.973659, -26.989621, 166.138106)"></path>
    <path style="fill:#000A1F; stroke:none;" d="M 720.894 189.805 L 719.07 204.7 L 719.935 204.7 C 722.336 199.916 723.446 194.724 720.894 189.805 M 703.541 197.692 C 707.358 197.838 708.332 196.105 708.767 192.434 C 705.457 193.148 704.271 194.344 703.541 197.692 M 742.49 194.187 L 742.469 197.692 L 748.535 195.94 L 742.49 194.187 M 728.618 199.443 L 729.477 200.318 L 728.618 199.443 M 729.465 202.071 L 730.328 202.948 L 729.465 202.071 M 730.322 203.824 L 731.181 204.7 L 730.322 203.824 M 731.174 205.576 L 732.893 207.329 L 731.174 205.576 M 734.618 208.204 L 735.48 209.079 L 734.618 208.204 M 738.066 209.955 L 738.926 210.833 L 738.066 209.955 Z" transform="matrix(0.973659, -0.228008, 0.228008, 0.973659, -26.549955, 170.819051)"></path>
</svg>